<svg width="32" height="32" viewBox="0 0 32 32" fill="none" xmlns="http://www.w3.org/2000/svg">
<g clip-path="url(#clip0_36_8)">
<rect width="32" height="32" fill="white"/>
<path d="M0 0H32V32H0V0Z" fill="#121212"/>
<path d="M7.584 25C6.992 25 6.448 24.856 5.952 24.568C5.456 24.28 5.064 23.888 4.776 23.392C4.488 22.896 4.344 22.352 4.344 21.76V10.96C4.344 10.368 4.488 9.824 4.776 9.328C5.064 8.832 5.456 8.44 5.952 8.152C6.448 7.864 6.992 7.72 7.584 7.72H21.576V10.624H8.088C7.832 10.624 7.624 10.704 7.464 10.864C7.304 11.008 7.224 11.208 7.224 11.464V21.256C7.224 21.512 7.304 21.72 7.464 21.88C7.624 22.024 7.832 22.096 8.088 22.096H21.576V25H7.584Z" fill="#F7F7F7"/>
<path d="M23.8864 25V7.72H26.7424V25H23.8864Z" fill="#F7F7F7"/>
</g>
<defs>
<clipPath id="clip0_36_8">
<rect width="32" height="32" fill="white"/>
</clipPath>
</defs>
</svg>
