<svg width="172" height="73" viewBox="0 0 172 73" fill="none" xmlns="http://www.w3.org/2000/svg">
<path d="M5.87603 27.9998C4.98803 27.9998 4.17203 27.7838 3.42803 27.3518C2.68403 26.9198 2.09603 26.3318 1.66403 25.5878C1.23203 24.8438 1.01603 24.0278 1.01603 23.1398V6.93979C1.01603 6.05178 1.23203 5.23579 1.66403 4.49178C2.09603 3.74779 2.68403 3.15979 3.42803 2.72779C4.17203 2.29579 4.98803 2.07979 5.87603 2.07979H26.864V6.43579H6.63203C6.24803 6.43579 5.93603 6.55579 5.69603 6.79578C5.45603 7.01179 5.33603 7.31179 5.33603 7.69579V22.3838C5.33603 22.7678 5.45603 23.0798 5.69603 23.3198C5.93603 23.5358 6.24803 23.6438 6.63203 23.6438H26.864V27.9998H5.87603Z" fill="#F7F7F7"/>
<path d="M30.4736 27.9998V11.9438C30.4736 11.0558 30.6896 10.2518 31.1216 9.53179C31.5776 8.81179 32.1656 8.23579 32.8856 7.80378C33.6296 7.34778 34.4336 7.11979 35.2976 7.11979H46.9256V11.4038H35.4416C35.2496 11.4038 35.0816 11.4758 34.9376 11.6198C34.8176 11.7398 34.7576 11.8958 34.7576 12.0878V27.9998H30.4736Z" fill="#F7F7F7"/>
<path d="M54.1053 27.9998C53.2173 27.9998 52.4133 27.7838 51.6933 27.3518C50.9733 26.8958 50.3853 26.3078 49.9293 25.5878C49.4973 24.8678 49.2813 24.0638 49.2813 23.1758V11.9438C49.2813 11.0558 49.4973 10.2518 49.9293 9.53179C50.3853 8.81179 50.9733 8.23579 51.6933 7.80378C52.4133 7.34778 53.2173 7.11979 54.1053 7.11979H65.6613C66.5733 7.11979 67.3893 7.34778 68.1093 7.80378C68.8293 8.23579 69.4053 8.81179 69.8373 9.53179C70.2693 10.2518 70.4853 11.0558 70.4853 11.9438V19.7198H53.5653V23.0318C53.5653 23.2238 53.6253 23.3918 53.7453 23.5358C53.8893 23.6558 54.0573 23.7158 54.2493 23.7158H70.4853V27.9998H54.1053ZM53.5653 15.7958H66.2013V12.0878C66.2013 11.8958 66.1293 11.7398 65.9853 11.6198C65.8653 11.4758 65.7093 11.4038 65.5173 11.4038H54.2493C54.0573 11.4038 53.8893 11.4758 53.7453 11.6198C53.6253 11.7398 53.5653 11.8958 53.5653 12.0878V15.7958Z" fill="#F7F7F7"/>
<path d="M79.0671 27.9998C78.1791 27.9998 77.3631 27.7838 76.6191 27.3518C75.8991 26.8958 75.3231 26.3078 74.8911 25.5878C74.4591 24.8678 74.2431 24.0638 74.2431 23.1758V15.3998H91.1631V12.0878C91.1631 11.8958 91.0911 11.7398 90.9471 11.6198C90.8271 11.4758 90.6711 11.4038 90.4791 11.4038H74.2431V7.11979H90.6231C91.5351 7.11979 92.3511 7.34778 93.0711 7.80378C93.7911 8.23579 94.3671 8.81179 94.7991 9.53179C95.2311 10.2518 95.4471 11.0558 95.4471 11.9438V27.9998H79.0671ZM79.2111 23.7158H91.1631V19.3238H78.5271V23.0318C78.5271 23.2238 78.5871 23.3918 78.7071 23.5358C78.8511 23.6558 79.0191 23.7158 79.2111 23.7158Z" fill="#F7F7F7"/>
<path d="M104.099 27.9998C103.211 27.9998 102.395 27.7838 101.651 27.3518C100.931 26.8958 100.355 26.3078 99.9232 25.5878C99.4912 24.8678 99.2752 24.0638 99.2752 23.1758V0.603785H103.559V7.11979H111.911V11.4038H103.559V23.0318C103.559 23.2238 103.619 23.3918 103.739 23.5358C103.883 23.6558 104.051 23.7158 104.243 23.7158H111.911V27.9998H104.099Z" fill="#F7F7F7"/>
<path d="M114.849 27.9998V7.11979H119.133V27.9998H114.849ZM114.849 4.59979V0.279785H119.133V4.59979H114.849Z" fill="#F7F7F7"/>
<path d="M133.197 27.9998L121.713 7.11979H126.681L135.285 22.9238L143.889 7.11979H148.857L137.301 27.9998H133.197Z" fill="#F7F7F7"/>
<path d="M154.969 27.9998C154.081 27.9998 153.277 27.7838 152.557 27.3518C151.837 26.8958 151.249 26.3078 150.793 25.5878C150.361 24.8678 150.145 24.0638 150.145 23.1758V11.9438C150.145 11.0558 150.361 10.2518 150.793 9.53179C151.249 8.81179 151.837 8.23579 152.557 7.80378C153.277 7.34778 154.081 7.11979 154.969 7.11979H166.525C167.437 7.11979 168.253 7.34778 168.973 7.80378C169.693 8.23579 170.269 8.81179 170.701 9.53179C171.133 10.2518 171.349 11.0558 171.349 11.9438V19.7198H154.429V23.0318C154.429 23.2238 154.489 23.3918 154.609 23.5358C154.753 23.6558 154.921 23.7158 155.113 23.7158H171.349V27.9998H154.969ZM154.429 15.7958H167.065V12.0878C167.065 11.8958 166.993 11.7398 166.849 11.6198C166.729 11.4758 166.573 11.4038 166.381 11.4038H155.113C154.921 11.4038 154.753 11.4758 154.609 11.6198C154.489 11.7398 154.429 11.8958 154.429 12.0878V15.7958Z" fill="#F7F7F7"/>
<path d="M0.728027 72.9998V47.0798H5.01203V72.9998H0.728027Z" fill="#F7F7F7"/>
<path d="M9.02996 72.9998V52.1198H25.446C26.31 52.1198 27.102 52.3478 27.822 52.8038C28.566 53.2358 29.154 53.8118 29.586 54.5318C30.018 55.2518 30.234 56.0558 30.234 56.9438V72.9998H25.95V57.0878C25.95 56.8958 25.878 56.7398 25.734 56.6198C25.614 56.4758 25.47 56.4038 25.302 56.4038H13.998C13.83 56.4038 13.674 56.4758 13.53 56.6198C13.386 56.7398 13.314 56.8958 13.314 57.0878V72.9998H9.02996Z" fill="#F7F7F7"/>
<path d="M38.8844 72.9998C37.9964 72.9998 37.1804 72.7838 36.4364 72.3518C35.7164 71.8958 35.1404 71.3078 34.7084 70.5878C34.2764 69.8678 34.0604 69.0638 34.0604 68.1758V45.6038H38.3444V52.1198H46.6964V56.4038H38.3444V68.0318C38.3444 68.2238 38.4044 68.3918 38.5244 68.5358C38.6684 68.6558 38.8364 68.7158 39.0284 68.7158H46.6964V72.9998H38.8844Z" fill="#F7F7F7"/>
<path d="M54.3514 72.9998C53.4634 72.9998 52.6594 72.7838 51.9394 72.3518C51.2194 71.8958 50.6314 71.3078 50.1754 70.5878C49.7434 69.8678 49.5274 69.0638 49.5274 68.1758V56.9438C49.5274 56.0558 49.7434 55.2518 50.1754 54.5318C50.6314 53.8118 51.2194 53.2358 51.9394 52.8038C52.6594 52.3478 53.4634 52.1198 54.3514 52.1198H65.9074C66.8194 52.1198 67.6354 52.3478 68.3554 52.8038C69.0754 53.2358 69.6514 53.8118 70.0834 54.5318C70.5154 55.2518 70.7314 56.0558 70.7314 56.9438V64.7198H53.8114V68.0318C53.8114 68.2238 53.8714 68.3918 53.9914 68.5358C54.1354 68.6558 54.3034 68.7158 54.4954 68.7158H70.7314V72.9998H54.3514ZM53.8114 60.7958H66.4474V57.0878C66.4474 56.8958 66.3754 56.7398 66.2314 56.6198C66.1114 56.4758 65.9554 56.4038 65.7634 56.4038H54.4954C54.3034 56.4038 54.1354 56.4758 53.9914 56.6198C53.8714 56.7398 53.8114 56.8958 53.8114 57.0878V60.7958Z" fill="#F7F7F7"/>
<path d="M74.2783 72.9998V56.9438C74.2783 56.0558 74.4943 55.2518 74.9263 54.5318C75.3823 53.8118 75.9703 53.2358 76.6903 52.8038C77.4343 52.3478 78.2383 52.1198 79.1023 52.1198H90.7303V56.4038H79.2463C79.0543 56.4038 78.8863 56.4758 78.7423 56.6198C78.6223 56.7398 78.5623 56.8958 78.5623 57.0878V72.9998H74.2783Z" fill="#F7F7F7"/>
<path d="M93.333 72.9998V52.1198H97.617V72.9998H93.333ZM93.333 49.5998V45.2798H97.617V49.5998H93.333Z" fill="#F7F7F7"/>
<path d="M105.996 72.9998C105.108 72.9998 104.304 72.7838 103.584 72.3518C102.864 71.8958 102.276 71.3078 101.82 70.5878C101.388 69.8678 101.172 69.0638 101.172 68.1758V56.9438C101.172 56.0558 101.388 55.2518 101.82 54.5318C102.276 53.8118 102.864 53.2358 103.584 52.8038C104.304 52.3478 105.108 52.1198 105.996 52.1198H117.552C118.464 52.1198 119.28 52.3478 120 52.8038C120.72 53.2358 121.296 53.8118 121.728 54.5318C122.16 55.2518 122.376 56.0558 122.376 56.9438V68.1758C122.376 69.0638 122.16 69.8678 121.728 70.5878C121.296 71.3078 120.72 71.8958 120 72.3518C119.28 72.7838 118.464 72.9998 117.552 72.9998H105.996ZM106.14 68.7158H117.408C117.6 68.7158 117.756 68.6558 117.876 68.5358C118.02 68.3918 118.092 68.2238 118.092 68.0318V57.0878C118.092 56.8958 118.02 56.7398 117.876 56.6198C117.756 56.4758 117.6 56.4038 117.408 56.4038H106.14C105.948 56.4038 105.78 56.4758 105.636 56.6198C105.516 56.7398 105.456 56.8958 105.456 57.0878V68.0318C105.456 68.2238 105.516 68.3918 105.636 68.5358C105.78 68.6558 105.948 68.7158 106.14 68.7158Z" fill="#F7F7F7"/>
<path d="M125.466 72.9998V56.9438C125.466 56.0558 125.682 55.2518 126.114 54.5318C126.57 53.8118 127.158 53.2358 127.878 52.8038C128.622 52.3478 129.426 52.1198 130.29 52.1198H141.918V56.4038H130.434C130.242 56.4038 130.074 56.4758 129.93 56.6198C129.81 56.7398 129.75 56.8958 129.75 57.0878V72.9998H125.466Z" fill="#F7F7F7"/>
</svg>
